<?xml version="1.0" encoding="utf-8"?>
<svg viewBox="0 0 32 32" width="32" height="32" fill="#000000" xmlns="http://www.w3.org/2000/svg">
    <rect x="4" y="5" width="26" height="24" style="fill:#CCCCCC" />
    <path style="stroke:#CCCCCC; fill:#000000;" d="M 29.019 4.377 L 3.019 4.377 C 2.419 4.377 2.019 4.943 2.019 5.791 L 2 28.585 C 2 29.434 2.4 30 3 30 L 29 30 C 29.6 30 30 29.434 30 28.585 L 30.019 5.791 C 30.019 4.943 29.619 4.377 29.019 4.377 Z M 8 27.17 L 4 27.17 L 4 7.364 L 5 7.364 L 5 17.267 C 5 18.116 5.4 18.682 6 18.682 L 8 18.682 L 8 27.17 Z M 15 27.17 L 10 27.17 L 10 18.682 C 10.6 18.682 11 18.116 11 17.267 L 11 7.364 L 13 7.364 L 13 17.267 C 13 18.116 13.4 18.682 14 18.682 L 15 18.682 L 15 27.17 Z M 22 27.17 L 17 27.17 L 17 18.682 L 18 18.682 C 18.6 18.682 19 18.116 19 17.267 L 19 7.364 L 21 7.364 L 21 17.267 C 21 18.116 21.4 18.682 22 18.682 L 22 27.17 Z M 28 27.17 L 24 27.17 L 24 18.682 L 26 18.682 C 26.6 18.682 27 18.116 27 17.267 L 27 7.364 L 28 7.364 L 28 27.17 Z" />
</svg>