<?xml version="1.0" encoding="iso-8859-1"?>
<svg version="1.1" xmlns="http://www.w3.org/2000/svg" xmlns:xlink="http://www.w3.org/1999/xlink" x="0px" y="0px"
	 width="47px" height="47px" viewBox="0 0 47 47" style="enable-background:new 0 0 47 47;" xml:space="preserve">
<path style="stroke:#CCCCCC; fill:#CCCCCC;" d="M29.525,0c-1.331,0-2.411,1.079-2.411,2.41v18.077c0,1.994-1.622,3.615-3.615,3.615c-1.993,0-3.615-1.622-3.615-3.615
	V2.41c0-1.331-1.08-2.41-2.411-2.41s-2.41,1.079-2.41,2.41v18.077c0,3.813,2.546,7.041,6.026,8.082V44.59
	c0,1.331,1.079,2.41,2.41,2.41c1.331,0,2.41-1.079,2.41-2.41V28.568c3.48-1.041,6.026-4.268,6.026-8.082V2.41
	C31.936,1.079,30.856,0,29.525,0z"/>
</svg>
